<?xml version="1.0" encoding="UTF-8"?>
<svg id="uuid-9c0276db-ae7d-45cf-9f7b-24cec371d962" data-name="Capa 1" xmlns="http://www.w3.org/2000/svg" viewBox="0 0 500 474.34">
  <path d="m104.57,150.37c-.89,0-11.24,20.62-14.22,28.28-2.6,6.62-7.07,23.3-7.81,28.8l-.52,3.94h5.21l1.64-7.96c2.98-14.29,7.52-26.57,16.23-43.69l3.35-6.7-1.79-1.34c-.97-.67-1.86-1.34-2.08-1.34Z"/>
  <path d="m203.41,342.68c.45.3,2.75-.52,5.14-1.86,2.38-1.27,5.66-3.05,7.29-3.87,4.09-2.16,11.16-6.25,15.48-8.93l3.5-2.23v-7.74c0-4.24-.07-7.67-.15-7.67-.45.07-21.29,12.5-27.39,16.3-3.5,2.16-7.29,4.61-8.56,5.36-7.22,4.47-18.53,12.35-28.28,19.72-13.32,10.05-15.41,11.76-14.66,12.58.3.37.07.37-.45.07-.67-.37-1.79.07-2.98,1.27-1.12.97-3.65,3.05-5.58,4.54-2.01,1.49-3.5,2.68-3.27,2.68,1.34,0,12.35-5.81,11.91-6.33-.37-.3-.22-.37.3-.07,1.12.6,7.81-2.46,7.22-3.35-.22-.37.07-.45.67-.22.82.3,11.16-4.32,17.71-7.81.6-.37,5.88-3.05,11.69-6.03,6.62-3.27,10.42-5.58,10.12-6.1-.3-.52-.15-.6.3-.3Z"/>
  <path d="m171.7,340.3c.15-.3,1.71-1.64,3.57-2.98l3.35-2.46-33.64.22-33.57.22,3.05,2.75,3.13,2.75,26.94.07c14.81,0,27.02-.22,27.17-.6Z"/>
  <path d="m149.23,110.77c1.04-.67,2.6-1.94,3.57-2.75.89-.89,1.64-1.49,1.64-1.27s2.6-1.19,5.81-3.13c7.07-4.39,14.59-8.26,20.99-10.94,2.68-1.12,5.88-2.46,7.07-2.98,1.27-.52,3.94-1.56,6.03-2.16,4.99-1.64,6.1-2.53,6.7-5.51.52-2.46,0-2.9-1.86-1.71-.52.37-.74,1.12-.52,1.64.3.6.07.45-.45-.22-.97-1.12-1.86-.89-11.46,2.68-15.93,6.03-30.14,13.77-42.5,23.22-5.06,3.87-12.88,10.79-12.88,11.46,0,.3.82.89,1.94,1.34,1.71.82,2.38.52,7.96-3.8,3.35-2.53,6.92-5.21,7.96-5.88Z"/>
  <path d="m290.49,58.45c.3.45,2.68,1.19,5.36,1.79,11.83,2.31,31.41,9.68,45.03,16.89,10.2,5.43,36.77,23.97,39.82,27.84.22.3,1.79,1.71,3.5,3.27l3.2,2.83,10.12-4.91c5.58-2.68,10.27-4.91,10.42-4.91s.3.52.3,1.12c0,1.41-5.21,20.54-6.03,22.1-.45.89.37,2.75,3.27,7.07,7.89,11.76,14.14,23.59,19.13,36.32,1.27,3.27,2.6,6.62,2.98,7.44,1.71,3.57,7.22,25.38,8.56,33.72l.52,3.2,13.32-.15c10.94-.07,13.32-.3,13.32-1.19,0-2.01-1.56-11.83-3.05-19.2-10.57-51.43-42.57-98.91-86.63-128.31-26.57-17.79-56.42-29.85-85.96-34.76-3.5-.6-7.22-1.04-8.34-1.04h-2.01l3.94,9.45c7.07,16.97,8.63,20.69,9.23,21.43Z"/>
  <path d="m394.91,151.85c-.37,0-.89.82-1.12,1.79-.3,1.27.37,3.2,2.23,6.48,6.33,11.24,12.8,29.25,16.3,45.47l1.27,5.81h2.53c1.41,0,2.53-.22,2.53-.6,0-.3-.45-3.2-1.04-6.48-1.64-9.38-4.91-20.32-9.38-31.26-1.41-3.5-6.85-14.51-9.15-18.61-2.38-4.09-5.14-6.77-4.02-3.8.3.67.22,1.19-.15,1.19Z"/>
  <path d="m300.98,80.11q-2.01-.45-1.27,2.53c.74,2.75.97,2.98,5.73,4.47,2.68.89,5.58,1.86,6.4,2.23.82.37,3.2,1.34,5.36,2.16,4.61,1.79,19.8,9.38,22.48,11.24,1.04.74,3.94,2.6,6.4,4.17,4.69,2.98,14.07,9.97,17.86,13.25,2.68,2.31,2.46,2.31,4.84.52l1.86-1.41-3.35-2.98c-16.82-14.74-41.38-28.8-60.66-34.61-2.01-.6-4.61-1.34-5.66-1.56Z"/>
  <path d="m163.89,205.29l3.94,9.01,4.02,8.93,4.76-9.08c2.6-4.99,4.84-9.15,4.99-9.3.22-.3,18.23,9.08,22.25,11.61,2.75,1.71,3.13,1.71,7.14.89,2.31-.52,7.29-.82,10.94-.67l6.7.3-3.05-1.56c-4.84-2.53-12.13-6.77-26.72-15.48-26.72-16-35.58-21.29-35.87-21.29-.22,0-2.08-1.12-4.24-2.53-2.23-1.34-7.07-4.09-10.94-6.1-7.96-4.09-6.48-1.71-15.63-24.11-4.91-12.13-5.51-13.1-8.11-14.59-1.49-.89-5.51-3.13-8.93-5.06-6.25-3.5-6.85-3.72-6.85-2.98,0,.22,2.31,6.03,5.14,12.88,2.75,6.77,5.51,13.62,6.03,15.11.6,1.49,1.27,2.6,1.64,2.38.3-.22.37.07.22.67-.22.52,1.71,6.18,4.32,12.5,2.6,6.33,7.52,18.16,10.94,26.35,7.81,19.05,8.56,20.62,9.23,19.95.3-.3.3,0,.07.6-.67,1.79,19.05,47.93,20.1,46.96.37-.3.37-.07.07.45-.37.52,1.49,5.81,4.39,12.65,2.75,6.4,6.55,15.18,8.34,19.5,1.79,4.32,4.09,9.45,4.99,11.54.97,2.01,3.5,7.67,5.66,12.43l3.87,8.71,2.01-1.34c1.49-1.04,7-4.61,8.86-5.73.15-.15-.15-1.34-.67-2.83-.52-1.41-1.27-2.38-1.64-2.16-.45.22-.52.07-.22-.37.3-.52-.82-3.94-2.53-7.67-1.71-3.72-3.87-8.86-4.84-11.39-3.72-9.82-9.82-22.77-10.42-22.25-.3.37-.37.22-.15-.22.37-.67-4.24-12.73-8.11-20.77-.89-1.94-6.55-15.7-11.76-28.65-.97-2.23-2.23-5.28-2.9-6.7-1.12-2.38-2.46-5.88-9.45-23.67-1.34-3.35-2.31-6.33-2.08-6.48.15-.15,4.24,2.01,9.01,4.91,9.6,5.73,9.75,5.95,7.07,11.39l-1.56,3.27Z"/>
  <path d="m50.98,212.14c7.37,0,13.4-.15,13.4-.37,0-1.56,4.24-20.1,6.03-26.27,5.88-20.24,12.73-34.68,25.31-53.51l3.57-5.36-1.71-6.55c-.97-3.57-2.53-9.3-3.42-12.73s-1.49-6.33-1.34-6.48c.22-.22,5.06,2.01,10.87,4.91l10.49,5.36,7.67-6.62c4.24-3.65,9.82-8.41,12.5-10.49,18.31-14.36,44.81-27.17,67.65-32.75,4.32-1.04,8.26-2.23,8.71-2.53.45-.37,1.71-3.05,2.9-6.03,1.12-2.98,3.87-9.75,6.03-14.96,2.23-5.28,4.02-9.68,4.02-9.9,0-.6-5.58-.15-11.16.89-40.56,7.37-77.33,25.16-107.32,51.95-30.74,27.39-52.47,63.49-62.74,103.83-1.79,7.07-4.84,23.59-4.84,26.27,0,1.12,1.41,1.27,13.4,1.34Z"/>
  <path d="m91.4,243.4h52.02l-.45,1.94c-.82,3.27-11.16,28.21-25.23,60.73-3.5,8.11-6.62,15.48-6.92,16.37-.45,1.49-.37,1.56.67.67.67-.52,4.84-3.13,9.23-5.73,4.39-2.53,8.41-5.06,8.93-5.51.52-.37,1.12-.74,1.34-.74s4.47-2.46,9.53-5.43c4.99-2.98,13.55-8.11,18.98-11.31,5.36-3.2,9.82-6.18,9.82-6.55s-.97-2.9-2.16-5.58c-1.19-2.75-2.23-5.43-2.38-5.95-.3-.89-3.35.67-17.42,9.08-2.83,1.71-5.81,3.35-6.55,3.65-1.27.45-1.27.37.07-1.56,2.6-3.72,6.92-13.02,6.55-14.07-.22-.6-.15-.89.22-.67s.82,0,1.04-.52c.22-.45,2.23-5.51,4.54-11.16l4.24-10.27-3.8-8.71c-2.08-4.76-4.24-9.75-4.91-10.94-.82-1.64-1.56-2.23-3.13-2.23-1.12,0-27.09.15-57.83.37l-55.82.45-10.79,2.01c-5.95,1.12-13.1,2.38-16,2.9l-5.21.89,2.98.6c1.64.3,10.49,2.08,19.65,3.94l16.67,3.35h52.1Z"/>
  <path d="m402.2,310.38c.67,0,6.55-12.35,9.23-19.35,3.05-7.81,7.96-27.02,7.96-30.96,0-.82-5.28-.15-5.51.6-.15.52-1.19,4.99-2.31,9.9-2.01,8.93-5.95,20.84-9.53,28.73-1.64,3.72-1.79,4.69-1.12,7.67.37,1.86.97,3.42,1.27,3.42Z"/>
  <path d="m282.45,320.06c-8.34-4.99-15.63-9.3-16.23-9.45-1.56-.67-.45,14.66,1.19,15.85,1.19.89,8.93,5.36,25.45,14.59,11.46,6.48,66.91,33.72,65.12,32-1.94-1.79-23.22-18.31-30.52-23.67-13.99-10.27-23.15-16.23-45.03-29.32Z"/>
  <path d="m436.89,260.67c-.15.52-.67,3.27-1.19,6.18-1.34,7.81-5.51,22.77-8.93,32-3.05,8.11-10.35,23.59-13.47,28.65-5.28,8.48-12.88,19.5-15.78,23-1.86,2.23-3.2,4.32-2.98,4.69.22.37.15.6-.22.45-.3-.07-4.91,4.24-10.27,9.53-5.28,5.28-12.43,11.76-15.85,14.44-22.1,17.19-48.23,29.85-74.5,35.87l-4.02.97-5.14,11.91c-2.83,6.55-5.73,13.47-6.48,15.33l-1.34,3.5,2.68-.3c24.78-2.53,44.95-8.48,67.8-20.02,22.77-11.39,40.86-24.49,57.53-41.68,23.07-23.67,37.51-47.19,49.57-80.98,3.94-10.87,10.49-41.83,9.3-43.76-.67-1.12-26.35-.82-26.72.22Z"/>
  <path d="m495.24,234.69c-2.6-.52-10.64-1.94-17.79-3.2l-13.02-2.23h-111.71l-3.87,9.82c-2.08,5.43-4.02,10.49-4.32,11.16-.37,1.19,12.65,33.05,15.03,36.77,2.53,3.8-.45,2.23-17.79-9.6-2.38-1.56-4.39-2.83-4.54-2.68-.07.15-1.04,2.6-2.08,5.51-1.12,2.83-2.16,5.73-2.46,6.48-.37.89.52,1.79,3.65,3.72,2.23,1.34,8.26,4.91,13.25,7.96,13.02,7.81,36.39,22.4,38.48,24.04.97.74,1.86,1.27,2.01,1.12.45-.45-.6-3.5-1.12-3.2-.22.15-.52-.45-.52-1.41-.07-.89-.67-2.75-1.27-4.17-2.68-5.88-9.45-21.43-9.45-21.81,0-.15-.97-2.46-2.16-5.06s-3.05-6.85-4.17-9.53c-1.12-2.68-4.69-11.09-7.89-18.76-3.2-7.67-5.88-14.44-5.88-15.03,0-1.04,5.36-1.19,51.58-1.19l51.5.07,19.65-3.94,19.65-3.94-4.76-.89Z"/>
  <polygon points="386.87 338.07 389.55 335.32 356.21 335.32 322.79 335.32 326.66 338.07 330.46 340.82 357.25 340.9 384.12 340.9 386.87 338.07"/>
  <path d="m86.34,260.29l-2.38-.15c-1.34-.15-2.46-.07-2.46,0,0,.15.52,2.98,1.12,6.4,2.38,12.8,6.48,24.93,13.17,39.37l2.98,6.33,1.12-3.8,1.12-3.87-2.98-6.92c-3.87-9.15-6.4-16.89-9.3-28.13l-2.38-9.23Z"/>
  <path d="m212.04,418.82c-.97-2.68-1.64-3.5-2.83-3.5-2.16,0-14.96-3.35-22.03-5.73-11.76-4.02-31.63-14.29-45.03-23.3-14.36-9.68-32.97-27.76-43.61-42.42-17.34-23.82-26.64-46.07-33.42-79.86l-.82-4.24h-13.25c-7.29,0-13.4.15-13.62.37-.52.52,1.27,11.61,3.57,22.33,8.56,39.3,26.72,73.09,54.41,101.22,15.03,15.33,23.3,21.96,43.54,34.91,2.31,1.49,4.39,2.68,4.54,2.68.22,0,2.68,1.34,5.43,2.98,6.92,4.02,26.12,12.13,27.54,11.61.6-.22.97-.15.74.22-.52.74,11.46,4.61,23,7.44,8.71,2.08,22.48,4.32,23,3.72.3-.3-4.02-11.61-6.92-18.16-2.68-6.1-2.9-6.55-4.24-10.27Z"/>
  <path d="m285.7,388.96c1.64-2.38,8.11-19.87,7.67-20.62-.3-.52-.22-.74.07-.37.6.52,6.25-11.46,6.33-13.4,0-1.19-11.91-7.22-12.65-6.4-.37.3-2.08,4.24-3.94,8.78-4.76,11.76-9.23,22.33-11.76,27.84-1.27,2.6-2.01,5.28-1.79,5.95.22.6.22.89-.07.67-.52-.6-3.65,5.58-8.11,16.3-1.56,3.8-2.98,6.77-3.13,6.62-.45-.45-.3-172.74.15-172.89.22-.15,5.66,3.27,12.06,7.44,6.48,4.24,16.97,11.02,23.3,15.03,6.33,4.09,11.98,7.81,12.5,8.34,1.41,1.41,2.31,1.19,3.13-.74.37-.89,1.71-4.09,2.98-7.07,2.6-6.1,2.75-5.81-2.9-8.78-1.49-.74-6.03-3.35-10.12-5.81-4.09-2.38-8.19-4.69-9.08-5.14-.97-.45-1.71-.97-1.71-1.27s7.15-.45,15.85-.22c8.63.15,16.15.07,16.6-.3.67-.52,5.51-12.58,5.51-13.84,0-.22-11.31-.45-25.08-.45s-25.23-.22-25.38-.52c-.22-.45,8.63-5.36,36.92-20.54,3.8-2.08,7-3.65,7.14-3.5.07.15,1.04,1.79,2.08,3.65,7.22,12.95,8.26,14.36,8.93,13.1.37-.67.45-1.64.15-2.16-.3-.45-.3-.67.07-.37.3.3,1.79-2.31,3.2-5.88l2.6-6.4-1.34-3.42q-2.38-6.18,2.38-8.78c2.38-1.34,6.48-3.65,9.08-5.14,4.61-2.68,4.76-2.68,4.39-.97-.37,1.56-11.02,27.98-13.62,33.79-.52,1.19-2.46,5.88-4.32,10.42-3.13,7.74-12.65,30.29-18.68,44.21-1.49,3.5-2.53,6.77-2.31,7.29.15.6.07.89-.3.67-.3-.22-3.57,6.55-7.14,15.03-3.57,8.48-6.77,15.7-7.07,16.15-1.71,2.38-1.41,3.42,1.56,5.28,6.03,3.8,8.34,4.84,9.01,4.17.74-.74,5.21-10.79,12.28-27.69,2.6-6.33,5.81-13.62,7-16.23,1.19-2.6,2.16-4.84,2.16-4.99s3.05-7.14,6.7-15.56c3.72-8.48,8.86-20.62,11.46-27.09,2.6-6.4,7.44-18.23,10.79-26.2,3.35-7.96,5.88-14.96,5.66-15.48-.15-.52-.07-.82.22-.6.37.22,3.5-6.7,7.07-15.41,3.5-8.71,8.56-21.14,11.31-27.69,2.68-6.55,5.73-14.29,6.77-17.12,1.04-2.9,2.16-5.81,2.53-6.55.45-.67.45-1.27.07-1.27-.3,0-4.47,2.31-9.08,5.06l-8.48,5.14-6.55,15.18c-3.57,8.34-6.33,15.63-6.1,16.15.22.52.07.82-.3.6-.3-.22-1.19.22-1.94,1.04-.74.82-1.64,1.49-1.94,1.49-.37,0-3.42,1.64-6.77,3.57-8.34,4.84-24.78,14.07-32.97,18.38-14.81,7.89-17.86,9.53-18.61,10.05-.37.3-3.87,2.16-7.67,4.09-4.24,2.08-6.7,3.72-6.4,4.24.3.45.22.6-.3.3-.37-.22-5.43,1.86-11.16,4.76-5.73,2.83-10.64,5.21-10.94,5.21s-1.49.74-2.75,1.56c-1.49,1.12-2.46,1.34-2.98.82s-.22-1.04.97-1.71c1.64-.82,11.69-7.37,31.56-20.39,4.54-2.98,9.82-6.33,11.76-7.52,2.01-1.19,4.54-2.75,5.58-3.42,1.12-.74,3.05-1.86,4.24-2.53,1.27-.67,5.14-3.05,8.71-5.21,3.57-2.23,6.77-4.02,7-4.02s3.42-1.86,7.07-4.09c3.65-2.23,6.77-4.09,6.92-4.09s3.2-1.71,6.77-3.8l6.55-3.87,3.27-7.07c1.79-3.87,3.13-7.52,2.9-8.11-.22-.6-.15-.89.15-.67.37.22,1.19-.74,1.86-2.16s1.04-2.6.89-2.6c-.22,0-1.64.82-3.2,1.71-1.49.97-8.78,5.06-16.15,9.08-7.37,3.94-15.7,8.56-18.46,10.2-2.83,1.64-5.21,2.83-5.36,2.68-.07-.07-1.86-4.09-3.94-8.78-3.87-9.08-6.77-15.41-11.16-24.56-1.41-3.05-2.68-5.95-2.83-6.48-.52-2.53-5.36-12.06-5.88-11.54-.37.3-.37.15-.15-.3.67-1.19-1.56-6.4-2.46-5.88-.37.22-.52,0-.3-.6.22-.6-1.04-4.17-2.68-8.04-1.71-3.87-3.87-9.01-4.84-11.54-.89-2.46-2.6-6.48-3.72-8.93-1.12-2.38-2.98-6.85-4.17-9.75-1.19-2.98-2.46-6.03-2.83-6.7-.82-1.49-.37-.3-10.79-25.53-4.24-10.42-9.3-22.7-11.16-27.17-3.2-7.81-3.35-8.11-4.09-6.1-.45,1.19-.82,2.23-.82,2.38,0,.45-9.68,23.37-14.96,35.5-2.38,5.58-4.39,10.35-4.39,10.57,0,.37-1.56,4.02-5.21,11.98-.74,1.64-4.09,9.53-7.44,17.49-6.85,16.3-18.31,43.47-19.35,45.77-.37.82-1.79,4.17-3.2,7.44-5.95,13.62-13.4,30.52-13.55,30.74-.22.22-3.87-1.71-16.97-9.08-4.84-2.68-8.93-4.91-9.08-4.91s-2.75-1.49-5.88-3.35c-3.05-1.79-6.92-3.94-8.56-4.84l-3.05-1.49.82,2.01c.37,1.19,2.23,5.66,4.09,9.97,3.35,7.89,3.5,7.96,8.19,11.02,2.6,1.71,4.91,3.05,5.06,3.05.37,0,50.01,29.7,54.03,32.38,7.37,4.76,25.16,16.15,32.3,20.62,4.47,2.75,7.81,5.14,7.44,5.14-1.79.22-15.03-.15-16.82-.52-3.57-.67-2.23.74,2.38,2.68,2.46,1.04,4.47,2.01,4.47,2.23s-10.49.45-23.3.52c-12.73.15-27.31.37-32.23.67l-9.01.45,2.98,7.07,3.05,7.07,16.23-.22c15.18-.3,18.61,0,14.59,1.19-.97.3-6.03,3.13-11.39,6.33-5.28,3.13-10.57,6.25-11.69,6.77l-2.01,1.04,2.6,5.95c1.41,3.27,3.27,7.67,4.09,9.75,1.64,4.32,3.8,6.48,9.97,10.2,12.88,7.59,21.29,12.43,21.58,12.43.15,0,2.23,1.19,4.61,2.6,2.38,1.41,4.54,2.6,4.91,2.6.3,0,.52-3.5.52-7.74v-7.74l-7.22-4.32c-4.02-2.38-9.15-5.36-11.46-6.62-10.72-5.88-13.32-7.52-13.32-8.34,0-.52,3.94-3.27,8.78-6.18,14.96-9.15,16.89-10.42,16.67-11.24-.07-.45.15-.52.6-.3.74.45,12.73-6.77,13.25-8.04.15-.3.6-.52,1.04-.52.6,0,.74,25.75.52,87.08-.15,49.49-.6,87.01-.97,86.86-.37-.15-1.12-1.56-1.79-3.13-1.19-3.27-6.4-15.93-12.06-29.4-2.01-4.69-5.88-14.29-8.56-21.21-2.75-7-5.21-12.95-5.51-13.25-.82-.82-12.73,5.21-12.73,6.4,0,.82,2.53,7.37,12.43,31.93,2.46,6.03,4.76,10.72,5.06,10.42.37-.3.37-.15.15.3-.45.74,2.83,9.15,23.67,61.1,3.65,9.08,6.92,16.3,7.14,16,.3-.3,3.5-8.04,7.22-17.27,3.72-9.23,10.87-26.79,16-39.07,5.06-12.28,9.68-23.67,10.27-25.31.52-1.64,1.19-3.35,1.49-3.72Zm-41.38-185.84c-.15.15-4.24-2.31-9.08-5.51-16.08-10.49-19.05-12.35-35.95-22.4-3.05-1.86-5.73-3.5-5.88-3.65-.45-.45,36.32-85.44,46.29-106.95,1.64-3.57,3.2-6.48,3.42-6.48.52,0,.3,110.9-.22,111.42-.15.15-.52-.97-.74-2.53-.82-4.47-3.8-12.28-9.15-24.56-4.99-11.31-6.7-13.99-4.39-7,.67,2.01,1.19,3.94,1.19,4.17,0,1.04-1.64-.67-2.31-2.38-.37-1.04-.89-1.71-1.12-1.49-.22.22.6,2.68,1.86,5.51,4.24,9.75,7.15,18.68,11.31,35.2,2.16,8.71,5.28,26.12,4.76,26.64Zm13.13-43.82c.22-5.95.45-31.26.45-56.19.07-40.12.15-45.25,1.12-43.99.6.82,1.12,1.79,1.12,2.16,0,.3.82,2.38,1.79,4.47.97,2.16,3.57,7.89,5.66,12.8,2.16,4.91,4.17,9.23,4.47,9.68.3.37,1.04,2.08,1.64,3.72.67,1.64,3.72,8.71,6.85,15.78,3.13,7.07,5.66,13.25,5.66,13.84,0,.52-2.16,3.5-4.84,6.55-2.6,3.05-4.69,5.88-4.47,6.4.15.52-.07.74-.6.6-1.64-.6-10.05,13.99-15.93,27.46l-3.27,7.52.37-10.79Zm-.22,42.87c-.82-.52,3.42-20.84,6.48-31.33,4.54-15.56,12.95-34.31,19.28-42.94,1.79-2.38,3.65-4.32,4.02-4.17.45.15,1.79,2.6,2.98,5.43,1.19,2.9,2.68,6.18,3.2,7.44.6,1.19,2.23,5.06,3.8,8.56,1.56,3.5,3.8,8.48,5.06,11.16,1.19,2.68,2.9,6.33,3.65,8.19,3.05,7.07,3.13,6.48-.74,8.71-1.94,1.04-9.75,5.88-17.49,10.57-7.67,4.76-17.04,10.49-20.84,12.8-3.72,2.38-7.29,4.61-7.81,5.14-.52.45-1.19.67-1.56.45Z"/>
</svg>